<svg xmlns:xlink="http://www.w3.org/1999/xlink" xmlns="http://www.w3.org/2000/svg" viewBox="0 0 369.66666666666663 83.3283198465147" preserveAspectRatio="xMidYMid meet" class="css-116ckqy" id="beacebac" width="369.66666666666663" height="83.3283198465147"><defs id="SvgjsDefs1132"></defs><g id="SvgjsG1133" featurekey="symbolFeature-0" transform="matrix(0.29441207181498213,0,0,0.29441207181498213,-2.495142140168035,-2.50986279991343)" fill="#111111"><g xmlns="http://www.w3.org/2000/svg" fill="#111111"><path d="M202.9,120.4L156,82.2c-3.5-2.9-8.6-2.9-12.1,0L97,120.5c-1.9,1.5-1.9,4.5,0,6l14.7,12c2.1,1.7,5.1,1.7,7.3,0l30.9-25.2   l30.9,25.3c2.1,1.7,5.1,1.7,7.3,0l14.7-12C204.8,124.9,204.8,122,202.9,120.4z" fill="#111111"></path><path d="M249.9,158.9l40.2-32.7c1.9-1.5,1.9-4.5,0-6L156,10.7c-3.5-2.9-8.6-2.9-12.1,0L9.9,120c-1.9,1.5-1.9,4.5,0,6l40.2,32.8   L9.9,191.6c-1.9,1.5-1.9,4.5,0,6L124,290.7c2.5,2,6.2,0.3,6.2-3V193c0-2.9-1.3-5.7-3.6-7.5L94,158.9L72,141l-19-15.7   c-1.4-1.1-1.4-3.3,0-4.5l93.4-76.2c2.1-1.7,5.1-1.7,7.3,0l93.4,76.2c1.4,1.1,1.4,3.3,0,4.5L228,140.9l-22.1,18l-32.6,26.6   c-2.3,1.8-3.6,4.6-3.6,7.5v94.7c0,3.2,3.8,5,6.2,3L290,197.6c1.9-1.5,1.9-4.5,0-6L249.9,158.9z M73.9,178.3l26.7,21.8   c1.3,1.1,2.2,2.8,2.2,4.5v28.8c0,1.6-1.9,2.6-3.1,1.5L53,196.8c-1.4-1.1-1.4-3.3,0-4.5l17.3-14.1C71.3,177.3,72.8,177.3,73.9,178.3   z M197.3,233.4v-28.8c0-1.7,0.8-3.4,2.2-4.5l26.7-21.8c1-0.9,2.5-0.9,3.6,0l17.3,14.1c1.4,1.1,1.4,3.3,0,4.5L200.4,235   C199.1,235.9,197.3,235.1,197.3,233.4z" fill="#111111"></path></g></g><g id="SvgjsG1134" featurekey="nameFeature-0" transform="matrix(1.6629249206627414,0,0,1.6629249206627414,102.33482888196554,-1.223409608874782)" fill="#111111"><path d="M6.52 25.32 c0 0.48 0.04 5.92 0.28 9.44 c0.12 1.48 0.76 3.72 2.08 3.72 l1.56 0 c0.24 0 0.28 0.12 0.28 0.28 l0 1.08 c0 0.16 -0.04 0.28 -0.36 0.28 c-0.44 0 -1.52 -0.12 -4.44 -0.12 c-3.4 0 -4.8 0.12 -5.16 0.12 c-0.32 0 -0.36 -0.04 -0.36 -0.36 l0 -1.04 c0 -0.12 0.04 -0.24 0.24 -0.24 l1.64 0 c1.28 0 1.76 -1.84 1.92 -3.12 c0.36 -2.84 0.72 -12.28 0.72 -13 l-0.04 -6.12 c0 -1.84 -0.4 -3.04 -2.2 -3.04 l-1.32 0 c-0.24 0 -0.28 -0.12 -0.28 -0.28 l0 -1.12 c0 -0.12 0.04 -0.24 0.28 -0.24 c0.4 0 1.48 0.12 6.2 0.12 c1.88 0 3.12 -0.12 3.6 -0.12 c0.4 0 0.72 0.04 0.96 0.68 c2.56 6.8 5.44 13.44 7.68 19.44 c0.44 -0.76 3.48 -8.2 3.72 -8.76 c0.16 -0.4 4.16 -9.96 4.36 -10.76 c0.12 -0.44 0.64 -0.48 1.84 -0.48 c6.24 0 7.6 -0.12 8.04 -0.12 c0.2 0 0.24 0.12 0.24 0.36 l0 0.92 c0 0.24 -0.04 0.36 -0.32 0.36 l-1.76 0 c-0.92 0 -1.04 0.72 -1.04 1.56 c0 0.6 0.04 10.44 0.08 11.28 c0 0.8 0.12 9.56 0.12 10.28 c0 1.52 0.36 2.16 0.92 2.16 l1.92 0 c0.24 0 0.28 0.12 0.28 0.28 l0 1 c0 0.24 -0.04 0.36 -0.36 0.36 c-0.48 0 -1.2 -0.12 -5.92 -0.12 c-4.08 0 -5.64 0.12 -6.16 0.12 c-0.28 0 -0.32 -0.12 -0.32 -0.36 l0 -1 c0 -0.2 0.04 -0.28 0.32 -0.28 l2.24 0 c0.68 0 1.04 -0.24 1.12 -1.36 c0.04 -0.48 0.16 -7.76 0.16 -10.56 l0 -12.2 l-0.24 0 c-0.4 0.68 -4.88 11.56 -5.6 13.2 c-0.84 1.84 -4.4 10.72 -4.6 11.08 c-0.2 0.32 -0.48 0.92 -0.96 0.92 c-0.28 0 -0.52 -0.28 -0.72 -0.72 c-0.12 -0.28 -5.4 -12.68 -5.68 -13.4 c-0.72 -1.84 -4.4 -10.8 -4.72 -11.28 c-0.16 0.56 -0.24 10.68 -0.24 11.16 z M55.160000000000004 30.04 l-9.16 0 l0 1.08 c0 4.16 2.36 6.2 5.28 6.2 c1.96 0 3.56 -0.92 4.36 -2.2 c0.08 -0.2 0.24 -0.24 0.4 -0.12 l0.68 0.36 c0.16 0.08 0.28 0.28 -0.08 0.96 c-0.72 1.48 -3.32 4.24 -7.08 4.24 c-2.56 0 -4.68 -0.44 -6 -1.88 c-2.04 -2.2 -2.72 -3.76 -2.76 -6.88 c0 -1.12 0 -3.24 1.8 -5.88 c1.44 -2.12 3.88 -3.28 6.96 -3.28 c6.48 0 6.84 6.2 6.84 6.84 c0 0.52 -0.36 0.56 -1.24 0.56 z M46.04 28.52 l3.84 0 c0.88 0 1.28 -0.2 1.28 -0.8 c0 -1.76 -0.72 -3.48 -1.96 -3.48 c-1.88 0 -2.88 1.48 -3.16 4.28 z M66 31 l0 3.16 c0 3.28 1.24 4 2.2 4 c0.84 0 1.44 -0.12 2.08 -0.48 c0.12 -0.08 0.24 -0.08 0.36 0.16 l0.28 0.6 c0.12 0.2 0 0.4 -0.16 0.52 c-0.68 0.48 -2.48 1.6 -5.6 1.6 c-2.72 0 -4.44 -1.88 -4.44 -3.72 c0 -1.4 0.08 -4.44 0.08 -5.96 l0.04 -5.28 l-2.2 0 c-0.36 0 -0.64 -0.16 -0.64 -0.56 s0.24 -0.68 0.88 -1 c1.32 -0.6 4.68 -3.6 6.16 -5.28 c0.28 -0.32 0.56 -0.4 0.76 -0.4 c0.36 0 0.52 0.28 0.52 0.6 l-0.16 4.24 l5.08 0 c0.24 0 0.36 0.2 0.28 0.36 l-0.4 1.72 c-0.04 0.16 -0.12 0.32 -0.36 0.32 l-4.68 0 c-0.08 1.64 -0.08 3.56 -0.08 5.4 z M81.44 29.36 l0 -2.12 c0 -0.8 -0.08 -1.72 -0.6 -2.2 c-0.4 -0.36 -1.04 -0.48 -1.68 -0.48 c-0.72 0 -1.4 0.16 -2.12 0.64 c-0.6 0.4 -0.12 1.08 -0.12 2.36 c0 1.36 -1 2.28 -2.6 2.28 c-0.92 0 -1.72 -0.56 -1.72 -1.44 s0.28 -2.08 1.12 -2.8 c1.68 -1.52 4.44 -2.96 7.68 -2.96 c2.56 0 3.24 0.4 4.08 1.16 c0.88 0.8 1.12 1.96 1.12 3.4 l0.08 7.96 c0.04 2.08 0.16 2.72 0.92 2.72 c0.56 0 1 -0.44 1.16 -0.72 c0.16 -0.24 0.28 -0.28 0.4 -0.2 l0.56 0.32 c0.16 0.08 0.28 0.2 0.12 0.56 c-0.36 0.84 -1.56 2.72 -4.04 2.72 c-1.56 0 -3.04 -0.56 -3.8 -2.44 l-0.2 0 c-1 0.92 -1.84 1.48 -3.44 2.08 c-0.8 0.28 -1.72 0.36 -2.88 0.36 c-1.4 0 -2.64 -1.52 -2.64 -3.68 c0 -1.76 0.84 -3.6 3.44 -4.88 c3.12 -1.48 4.12 -1.92 5.16 -2.64 z M81.48 36.64 l0 -5.68 c-1.96 1.12 -3.6 1.72 -3.6 4.48 c0 1.84 0.84 2.6 1.72 2.64 c1.08 -0.08 1.88 -1.08 1.88 -1.44 z M97.88000000000001 31 l0 3.16 c0 3.28 1.24 4 2.2 4 c0.84 0 1.44 -0.12 2.08 -0.48 c0.12 -0.08 0.24 -0.08 0.36 0.16 l0.28 0.6 c0.12 0.2 0 0.4 -0.16 0.52 c-0.68 0.48 -2.48 1.6 -5.6 1.6 c-2.72 0 -4.44 -1.88 -4.44 -3.72 c0 -1.4 0.08 -4.44 0.08 -5.96 l0.04 -5.28 l-2.2 0 c-0.36 0 -0.64 -0.16 -0.64 -0.56 s0.24 -0.68 0.88 -1 c1.32 -0.6 4.68 -3.6 6.16 -5.28 c0.28 -0.32 0.56 -0.4 0.76 -0.4 c0.36 0 0.52 0.28 0.52 0.6 l-0.16 4.24 l5.08 0 c0.24 0 0.36 0.2 0.28 0.36 l-0.4 1.72 c-0.04 0.16 -0.12 0.32 -0.36 0.32 l-4.68 0 c-0.08 1.64 -0.08 3.56 -0.08 5.4 z M111.60000000000001 29.439999999999998 l0 7.52 c0 1.24 0.4 1.64 1.24 1.64 l1.64 0 c0.24 0 0.28 0.12 0.28 0.36 l0 0.8 c0 0.24 -0.04 0.36 -0.2 0.36 c-0.24 0 -2.08 -0.12 -5.68 -0.12 c-3.08 0 -4.76 0.12 -5 0.12 c-0.16 0 -0.24 -0.08 -0.24 -0.4 l0 -0.76 c0 -0.28 0.08 -0.36 0.44 -0.36 l1.16 0 c0.6 0 0.96 -0.24 1.04 -0.96 c0.08 -1.12 0.08 -2.52 0.08 -4.52 l0 -3.32 c0 -1.72 -0.4 -2.44 -1.6 -3.12 l-0.68 -0.4 c-0.24 -0.12 -0.32 -0.2 -0.32 -0.36 l0 -0.36 c0 -0.16 0.08 -0.24 0.32 -0.32 l5.6 -2.44 c0.24 -0.08 0.4 -0.16 0.64 -0.16 c0.28 0 0.44 0.24 0.48 0.48 l0.36 3.12 l0.28 0 c1.24 -2.64 3 -3.84 4.76 -3.84 c1.2 0 2.12 0.92 2.12 2.32 c0 1.08 -1.24 2.28 -2.56 2.28 c-0.56 0 -1.08 -0.12 -1.44 -0.36 c-0.32 -0.2 -0.68 -0.28 -1 -0.28 c-0.4 0 -0.8 0.2 -1.04 0.72 c-0.52 1.08 -0.68 1.84 -0.68 2.36 z M128.08 40.56 c-2.92 0 -4.92 -0.6 -6.96 -2.92 c-1.52 -1.68 -2.12 -3.8 -2.12 -6.32 c0 -1.8 1 -4.76 3.44 -6.64 c2.04 -1.6 4.08 -2.04 5.96 -2.04 c2.76 0 4.64 0.84 6.44 2.52 c1.96 1.76 2.76 3.92 2.76 6.36 c0 2.32 -1 4.56 -2.56 6.24 c-1.92 2 -4.24 2.8 -6.96 2.8 z M128.32000000000002 38.88 c2.2 0 3.2 -3.24 3.2 -7.64 c0 -4.64 -1.6 -6.92 -3.36 -6.92 c-1 0 -1.64 0.28 -2.16 1.08 c-0.8 1.24 -1.32 2.96 -1.32 6.2 c0 2.32 0.2 3.84 1 5.56 c0.52 1.08 1.16 1.72 2.64 1.72 z M146.76000000000002 23.12 l0.44 1.72 l0.32 0 c0.44 -0.52 1.16 -1.04 1.92 -1.44 c0.88 -0.48 1.76 -0.76 3.08 -0.76 c1.56 0 3.08 0.16 4.12 1.12 c1.68 1.56 1.8 2.56 1.8 4.56 l0 4.24 c0 1.36 -0.08 3.24 -0.16 4.64 c-0.04 1.2 0.6 1.4 0.96 1.4 l1.08 0 c0.36 0 0.44 0.12 0.44 0.36 l0 0.72 c0 0.28 -0.08 0.44 -0.32 0.44 c-0.28 0 -1.52 -0.12 -4.72 -0.12 c-2.64 0 -3.92 0.12 -4.2 0.12 c-0.24 0 -0.32 -0.12 -0.32 -0.44 l0 -0.72 c0 -0.28 0.12 -0.36 0.52 -0.36 l0.44 0 c0.28 0 0.64 -0.2 0.72 -0.92 c0.16 -1.04 0.24 -2.32 0.24 -4.16 l0 -4.28 c0 -1.52 -0.12 -2.56 -0.96 -3.32 c-0.72 -0.64 -1.28 -0.72 -1.96 -0.72 c-0.72 0 -1.24 0.2 -2.04 0.8 c-0.48 0.36 -0.8 1.44 -0.8 3.08 l-0.08 8.2 c0 0.72 0.28 1.32 0.64 1.32 l0.52 0 c0.32 0 0.4 0.12 0.4 0.4 l0 0.76 c0 0.24 -0.08 0.36 -0.28 0.36 c-0.28 0 -1.36 -0.12 -4 -0.12 c-2.84 0 -4.12 0.12 -4.36 0.12 c-0.2 0 -0.28 -0.12 -0.28 -0.36 l0 -0.8 c0 -0.24 0.08 -0.36 0.4 -0.36 l0.6 0 c0.44 0 1.12 -0.12 1.12 -0.8 l0 -8.88 c0 -1.2 -0.68 -1.88 -1.6 -2.32 l-0.36 -0.16 c-0.24 -0.12 -0.28 -0.28 -0.28 -0.44 l0 -0.36 c0 -0.2 0.16 -0.32 0.36 -0.4 l5.12 -2.32 c0.32 -0.12 0.6 -0.28 0.92 -0.28 c0.24 0 0.48 0.2 0.56 0.48 z" fill="#111111"></path></g></svg>